M48
;Layer_Color=9474304
;FILE_FORMAT=4:2
METRIC,LZ
;TYPE=PLATED
T1F00S00C0.50
T2F00S00C0.90
T3F00S00C1.40
%
T01
X020131Y007683
X020295Y007671
X020482Y007712
T02
X021615Y005131
X021869
Y005385
X021615
Y005639
X021869
Y005893
X021615
Y006147
X021869
Y006401
X021615
Y006655
X021869
Y006909
X021615
Y007163
X021869
Y007417
X021615
Y007671
X021869
Y007925
X021615
X019329
Y007671
Y007417
Y007163
Y006909
Y006655
Y006401
Y006147
Y005893
Y005639
Y005385
Y005131
X019075
Y005385
Y005639
Y005893
Y006147
Y006401
Y006655
Y006909
Y007163
Y007417
Y007671
Y007925
Y008179
X019329
Y008433
X019075
Y008687
X019329
Y008941
X019075
Y009195
X019329
Y009449
X019075
X021615
Y009195
Y008941
Y008687
Y008433
Y008179
X021869
Y008433
Y008687
Y008941
Y009195
Y009449
T03
X019939Y004839
X020447Y005347
X019939Y00586
X02096
Y004839
X020985Y008725
X020472Y009233
X019964Y008725
Y009746
X020985
M30
