G04 Layer_Color=128*
%FSLAX42Y42*%
%MOMM*%
G71*
G01*
G75*
%ADD38C,0.05*%
D38*
X19284Y5131D02*
X19374D01*
X19329Y5086D02*
Y5176D01*
X19030Y5131D02*
X19120D01*
X19075Y5086D02*
Y5176D01*
X19284Y5385D02*
X19374D01*
X19329Y5340D02*
Y5430D01*
X19030Y5385D02*
X19120D01*
X19075Y5340D02*
Y5430D01*
X19284Y5639D02*
X19374D01*
X19329Y5594D02*
Y5684D01*
X19030Y5639D02*
X19120D01*
X19075Y5594D02*
Y5684D01*
X19284Y5893D02*
X19374D01*
X19329Y5848D02*
Y5938D01*
X19030Y5893D02*
X19120D01*
X19075Y5848D02*
Y5938D01*
X19284Y6147D02*
X19374D01*
X19329Y6102D02*
Y6192D01*
X19030Y6147D02*
X19120D01*
X19075Y6102D02*
Y6192D01*
X19284Y6401D02*
X19374D01*
X19329Y6356D02*
Y6446D01*
X19030Y6401D02*
X19120D01*
X19075Y6356D02*
Y6446D01*
X19284Y6655D02*
X19374D01*
X19329Y6610D02*
Y6700D01*
X19030Y6655D02*
X19120D01*
X19075Y6610D02*
Y6700D01*
X19284Y6909D02*
X19374D01*
X19329Y6864D02*
Y6954D01*
X19030Y6909D02*
X19120D01*
X19075Y6864D02*
Y6954D01*
X19284Y7163D02*
X19374D01*
X19329Y7118D02*
Y7208D01*
X19030Y7163D02*
X19120D01*
X19075Y7118D02*
Y7208D01*
X19284Y7417D02*
X19374D01*
X19329Y7372D02*
Y7462D01*
X19030Y7417D02*
X19120D01*
X19075Y7372D02*
Y7462D01*
X19284Y7671D02*
X19374D01*
X19329Y7626D02*
Y7716D01*
X19030Y7671D02*
X19120D01*
X19075Y7626D02*
Y7716D01*
X19284Y7925D02*
X19374D01*
X19329Y7880D02*
Y7970D01*
X19030Y7925D02*
X19120D01*
X19075Y7880D02*
Y7970D01*
X19284Y8179D02*
X19374D01*
X19329Y8134D02*
Y8224D01*
X19030Y8179D02*
X19120D01*
X19075Y8134D02*
Y8224D01*
X19284Y8433D02*
X19374D01*
X19329Y8388D02*
Y8478D01*
X19030Y8433D02*
X19120D01*
X19075Y8388D02*
Y8478D01*
X19284Y8687D02*
X19374D01*
X19329Y8642D02*
Y8732D01*
X19030Y8687D02*
X19120D01*
X19075Y8642D02*
Y8732D01*
X19284Y8941D02*
X19374D01*
X19329Y8896D02*
Y8986D01*
X19030Y8941D02*
X19120D01*
X19075Y8896D02*
Y8986D01*
X19284Y9195D02*
X19374D01*
X19329Y9150D02*
Y9240D01*
X19030Y9195D02*
X19120D01*
X19075Y9150D02*
Y9240D01*
X19284Y9449D02*
X19374D01*
X19329Y9404D02*
Y9494D01*
X19030Y9449D02*
X19120D01*
X19075Y9404D02*
Y9494D01*
X21824Y5131D02*
X21914D01*
X21869Y5086D02*
Y5176D01*
X21570Y5131D02*
X21660D01*
X21615Y5086D02*
Y5176D01*
X21824Y5385D02*
X21914D01*
X21869Y5340D02*
Y5430D01*
X21570Y5385D02*
X21660D01*
X21615Y5340D02*
Y5430D01*
X21824Y5639D02*
X21914D01*
X21869Y5594D02*
Y5684D01*
X21570Y5639D02*
X21660D01*
X21615Y5594D02*
Y5684D01*
X21824Y5893D02*
X21914D01*
X21869Y5848D02*
Y5938D01*
X21570Y5893D02*
X21660D01*
X21615Y5848D02*
Y5938D01*
X21824Y6147D02*
X21914D01*
X21869Y6102D02*
Y6192D01*
X21570Y6147D02*
X21660D01*
X21615Y6102D02*
Y6192D01*
X21824Y6401D02*
X21914D01*
X21869Y6356D02*
Y6446D01*
X21570Y6401D02*
X21660D01*
X21615Y6356D02*
Y6446D01*
X21824Y6655D02*
X21914D01*
X21869Y6610D02*
Y6700D01*
X21570Y6655D02*
X21660D01*
X21615Y6610D02*
Y6700D01*
X21824Y6909D02*
X21914D01*
X21869Y6864D02*
Y6954D01*
X21570Y6909D02*
X21660D01*
X21615Y6864D02*
Y6954D01*
X21824Y7163D02*
X21914D01*
X21869Y7118D02*
Y7208D01*
X21570Y7163D02*
X21660D01*
X21615Y7118D02*
Y7208D01*
X21824Y7417D02*
X21914D01*
X21869Y7372D02*
Y7462D01*
X21570Y7417D02*
X21660D01*
X21615Y7372D02*
Y7462D01*
X21824Y7671D02*
X21914D01*
X21869Y7626D02*
Y7716D01*
X21570Y7671D02*
X21660D01*
X21615Y7626D02*
Y7716D01*
X21824Y7925D02*
X21914D01*
X21869Y7880D02*
Y7970D01*
X21570Y7925D02*
X21660D01*
X21615Y7880D02*
Y7970D01*
X21824Y8179D02*
X21914D01*
X21869Y8134D02*
Y8224D01*
X21570Y8179D02*
X21660D01*
X21615Y8134D02*
Y8224D01*
X21824Y8433D02*
X21914D01*
X21869Y8388D02*
Y8478D01*
X21570Y8433D02*
X21660D01*
X21615Y8388D02*
Y8478D01*
X21824Y8687D02*
X21914D01*
X21869Y8642D02*
Y8732D01*
X21570Y8687D02*
X21660D01*
X21615Y8642D02*
Y8732D01*
X21824Y8941D02*
X21914D01*
X21869Y8896D02*
Y8986D01*
X21570Y8941D02*
X21660D01*
X21615Y8896D02*
Y8986D01*
X21824Y9195D02*
X21914D01*
X21869Y9150D02*
Y9240D01*
X21570Y9195D02*
X21660D01*
X21615Y9150D02*
Y9240D01*
X21824Y9449D02*
X21914D01*
X21869Y9404D02*
Y9494D01*
X21570Y9449D02*
X21660D01*
X21615Y9404D02*
Y9494D01*
X20402Y9233D02*
X20542D01*
X20472Y9163D02*
Y9303D01*
X19894Y9746D02*
X20034D01*
X19964Y9676D02*
Y9816D01*
X19894Y8725D02*
X20034D01*
X19964Y8655D02*
Y8795D01*
X20915Y8725D02*
X21055D01*
X20985Y8655D02*
Y8795D01*
X20915Y9746D02*
X21055D01*
X20985Y9676D02*
Y9816D01*
X20377Y5347D02*
X20517D01*
X20447Y5277D02*
Y5417D01*
X19869Y5860D02*
X20009D01*
X19939Y5790D02*
Y5930D01*
X19869Y4839D02*
X20009D01*
X19939Y4769D02*
Y4909D01*
X20890Y4839D02*
X21030D01*
X20960Y4769D02*
Y4909D01*
X20890Y5860D02*
X21030D01*
X20960Y5790D02*
Y5930D01*
X20457Y7712D02*
X20507D01*
X20482Y7688D02*
Y7738D01*
X20270Y7671D02*
X20320D01*
X20295Y7646D02*
Y7696D01*
X20106Y7683D02*
X20156D01*
X20131Y7658D02*
Y7708D01*
M02*
