G04 Layer_Color=8388736*
%FSLAX42Y42*%
%MOMM*%
G71*
G01*
G75*
%ADD29R,2.18X0.76*%
%ADD30R,1.35X1.55*%
%ADD31R,1.60X1.50*%
%ADD32R,0.75X1.00*%
%ADD33R,1.00X0.75*%
%ADD34C,1.70*%
%ADD35R,1.70X1.70*%
%ADD36C,2.70*%
D29*
X20612Y7468D02*
D03*
Y7341D02*
D03*
Y7214D02*
D03*
Y7087D02*
D03*
X20119D02*
D03*
Y7214D02*
D03*
Y7341D02*
D03*
Y7468D02*
D03*
D30*
X20296Y8344D02*
D03*
X20471D02*
D03*
X20611Y6274D02*
D03*
X20436D02*
D03*
D31*
X21057Y7217D02*
D03*
Y7057D02*
D03*
X20879Y7217D02*
D03*
Y7057D02*
D03*
D32*
X20482Y7851D02*
D03*
X20387D02*
D03*
X20291D02*
D03*
Y8091D02*
D03*
X20387D02*
D03*
X20482D02*
D03*
D33*
X20373Y6557D02*
D03*
Y6652D02*
D03*
Y6747D02*
D03*
X20613D02*
D03*
Y6652D02*
D03*
Y6557D02*
D03*
D34*
X19329Y5131D02*
D03*
X19075D02*
D03*
X19329Y5385D02*
D03*
X19075D02*
D03*
X19329Y5639D02*
D03*
X19075D02*
D03*
X19329Y5893D02*
D03*
X19075D02*
D03*
X19329Y6147D02*
D03*
X19075D02*
D03*
X19329Y6401D02*
D03*
X19075D02*
D03*
X19329Y6655D02*
D03*
X19075D02*
D03*
X19329Y6909D02*
D03*
X19075D02*
D03*
X19329Y7163D02*
D03*
X19075D02*
D03*
X19329Y7417D02*
D03*
X19075D02*
D03*
X19329Y7671D02*
D03*
X19075D02*
D03*
X19329Y7925D02*
D03*
X19075D02*
D03*
X19329Y8179D02*
D03*
X19075D02*
D03*
X19329Y8433D02*
D03*
X19075D02*
D03*
X19329Y8687D02*
D03*
X19075D02*
D03*
X19329Y8941D02*
D03*
X19075D02*
D03*
X19329Y9195D02*
D03*
X19075D02*
D03*
X19329Y9449D02*
D03*
X21869Y5131D02*
D03*
X21615D02*
D03*
X21869Y5385D02*
D03*
X21615D02*
D03*
X21869Y5639D02*
D03*
X21615D02*
D03*
X21869Y5893D02*
D03*
X21615D02*
D03*
X21869Y6147D02*
D03*
X21615D02*
D03*
X21869Y6401D02*
D03*
X21615D02*
D03*
X21869Y6655D02*
D03*
X21615D02*
D03*
X21869Y6909D02*
D03*
X21615D02*
D03*
X21869Y7163D02*
D03*
X21615D02*
D03*
X21869Y7417D02*
D03*
X21615D02*
D03*
X21869Y7671D02*
D03*
X21615D02*
D03*
X21869Y7925D02*
D03*
X21615D02*
D03*
X21869Y8179D02*
D03*
X21615D02*
D03*
X21869Y8433D02*
D03*
X21615D02*
D03*
X21869Y8687D02*
D03*
X21615D02*
D03*
X21869Y8941D02*
D03*
X21615D02*
D03*
X21869Y9195D02*
D03*
X21615D02*
D03*
X21869Y9449D02*
D03*
D35*
X19075D02*
D03*
X21615D02*
D03*
D36*
X20472Y9233D02*
D03*
X19964Y9746D02*
D03*
Y8725D02*
D03*
X20985D02*
D03*
Y9746D02*
D03*
X20447Y5347D02*
D03*
X19939Y5860D02*
D03*
Y4839D02*
D03*
X20960D02*
D03*
Y5860D02*
D03*
M02*
