G04 Layer_Physical_Order=2*
G04 Layer_Color=16711680*
%FSLAX42Y42*%
%MOMM*%
G71*
G01*
G75*
%ADD17C,0.30*%
%ADD19C,1.50*%
%ADD20R,1.50X1.50*%
%ADD21C,2.50*%
%ADD22C,0.80*%
%ADD23C,1.50*%
%ADD24C,2.00*%
D17*
X20482Y7705D02*
Y7712D01*
X20257Y7480D02*
X20482Y7705D01*
X20257Y6668D02*
Y7480D01*
X20180Y7557D02*
X20295Y7671D01*
X19583Y5994D02*
X20257Y6668D01*
X19583Y5723D02*
Y5994D01*
X19372Y5512D02*
X19583Y5723D01*
X19520Y5914D02*
Y6071D01*
X19365Y5759D02*
X19520Y5914D01*
Y6071D02*
X20180Y6731D01*
X19202Y5512D02*
X19372D01*
X19075Y5385D02*
X19202Y5512D01*
X20180Y6731D02*
Y7557D01*
X20117Y6764D02*
Y7670D01*
X20131Y7683D01*
X19372Y6020D02*
X20117Y6764D01*
X19195Y5759D02*
X19365D01*
X19075Y5639D02*
X19195Y5759D01*
X19202Y6020D02*
X19372D01*
X19075Y5893D02*
X19202Y6020D01*
D19*
X19329Y5131D02*
D03*
X19075D02*
D03*
X19329Y5385D02*
D03*
X19075D02*
D03*
X19329Y5639D02*
D03*
X19075D02*
D03*
X19329Y5893D02*
D03*
X19075D02*
D03*
X19329Y6147D02*
D03*
X19075D02*
D03*
X19329Y6401D02*
D03*
X19075D02*
D03*
X19329Y6655D02*
D03*
X19075D02*
D03*
X19329Y6909D02*
D03*
X19075D02*
D03*
X19329Y7163D02*
D03*
X19075D02*
D03*
X19329Y7417D02*
D03*
X19075D02*
D03*
X19329Y7671D02*
D03*
X19075D02*
D03*
X19329Y7925D02*
D03*
X19075D02*
D03*
X19329Y8179D02*
D03*
X19075D02*
D03*
X19329Y8433D02*
D03*
X19075D02*
D03*
X19329Y8687D02*
D03*
X19075D02*
D03*
X19329Y8941D02*
D03*
X19075D02*
D03*
X19329Y9195D02*
D03*
X19075D02*
D03*
X19329Y9449D02*
D03*
X21869Y5131D02*
D03*
X21615D02*
D03*
X21869Y5385D02*
D03*
X21615D02*
D03*
X21869Y5639D02*
D03*
X21615D02*
D03*
X21869Y5893D02*
D03*
X21615D02*
D03*
X21869Y6147D02*
D03*
X21615D02*
D03*
X21869Y6401D02*
D03*
X21615D02*
D03*
X21869Y6655D02*
D03*
X21615D02*
D03*
X21869Y6909D02*
D03*
X21615D02*
D03*
X21869Y7163D02*
D03*
X21615D02*
D03*
X21869Y7417D02*
D03*
X21615D02*
D03*
X21869Y7671D02*
D03*
X21615D02*
D03*
X21869Y7925D02*
D03*
X21615D02*
D03*
X21869Y8179D02*
D03*
X21615D02*
D03*
X21869Y8433D02*
D03*
X21615D02*
D03*
X21869Y8687D02*
D03*
X21615D02*
D03*
X21869Y8941D02*
D03*
X21615D02*
D03*
X21869Y9195D02*
D03*
X21615D02*
D03*
X21869Y9449D02*
D03*
D20*
X19075D02*
D03*
X21615D02*
D03*
D21*
X20472Y9233D02*
D03*
X19964Y9746D02*
D03*
Y8725D02*
D03*
X20985D02*
D03*
Y9746D02*
D03*
X20447Y5347D02*
D03*
X19939Y5860D02*
D03*
Y4839D02*
D03*
X20960D02*
D03*
Y5860D02*
D03*
D22*
X20482Y7712D02*
D03*
X20295Y7671D02*
D03*
X20131Y7683D02*
D03*
D23*
X19609Y7061D02*
Y7493D01*
X19456Y6909D02*
X19609Y7061D01*
X19329Y6909D02*
X19456D01*
X21323Y6744D02*
Y7087D01*
Y6464D02*
Y6744D01*
X21336D01*
X21501Y6909D01*
X20960Y6101D02*
X21323Y6464D01*
X20960Y5860D02*
Y6101D01*
X19964Y9487D02*
X20206Y9728D01*
Y9746D01*
X19609Y7823D02*
Y8369D01*
Y7493D02*
Y7823D01*
X19431Y7671D02*
X19456D01*
X19329D02*
X19431D01*
X19456D02*
X19609Y7823D01*
X21323D02*
Y8387D01*
Y7480D02*
Y7823D01*
X21476Y7671D02*
X21514D01*
X21323Y7823D02*
X21476Y7671D01*
X20985Y8725D02*
X21323Y8387D01*
X19609Y8369D02*
X19964Y8725D01*
X19431Y7671D02*
X19609Y7493D01*
X19075Y7671D02*
X19329D01*
X21323Y7087D02*
Y7480D01*
Y7087D02*
X21501Y6909D01*
X21615D01*
X21323Y7480D02*
X21514Y7671D01*
X21615D01*
D24*
X20960Y5072D02*
Y5860D01*
X20726Y4839D02*
X20960D01*
X20168D02*
X20726D01*
X20960Y5072D01*
Y4839D02*
Y5072D01*
X19939Y4839D02*
X20168D01*
X19939Y5067D02*
X20168Y4839D01*
X19939Y5067D02*
Y5860D01*
Y4839D02*
Y5067D01*
Y5156D01*
X20790Y9746D02*
X20985D01*
Y9550D02*
Y9746D01*
Y8725D02*
Y9550D01*
X20790Y9746D02*
X20985Y9550D01*
X20206Y9746D02*
X20790D01*
X19964D02*
X20206D01*
X19964Y9487D02*
Y9746D01*
Y8725D02*
Y9487D01*
M02*
