G04 Layer_Color=2752767*
%FSLAX42Y42*%
%MOMM*%
G71*
G01*
G75*
%ADD38C,0.05*%
%ADD39C,0.07*%
D38*
X19309Y5110D02*
Y5151D01*
X19350D01*
Y5110D01*
X19309D01*
X19055D02*
Y5151D01*
X19096D01*
Y5110D01*
X19055D01*
X19309Y5364D02*
Y5405D01*
X19350D01*
Y5364D01*
X19309D01*
X19055D02*
Y5405D01*
X19096D01*
Y5364D01*
X19055D01*
X19309Y5618D02*
Y5659D01*
X19350D01*
Y5618D01*
X19309D01*
X19055D02*
Y5659D01*
X19096D01*
Y5618D01*
X19055D01*
X19309Y5872D02*
Y5913D01*
X19350D01*
Y5872D01*
X19309D01*
X19055D02*
Y5913D01*
X19096D01*
Y5872D01*
X19055D01*
X19309Y6126D02*
Y6167D01*
X19350D01*
Y6126D01*
X19309D01*
X19055D02*
Y6167D01*
X19096D01*
Y6126D01*
X19055D01*
X19309Y6380D02*
Y6421D01*
X19350D01*
Y6380D01*
X19309D01*
X19055D02*
Y6421D01*
X19096D01*
Y6380D01*
X19055D01*
X19309Y6634D02*
Y6675D01*
X19350D01*
Y6634D01*
X19309D01*
X19055D02*
Y6675D01*
X19096D01*
Y6634D01*
X19055D01*
X19309Y6888D02*
Y6929D01*
X19350D01*
Y6888D01*
X19309D01*
X19055D02*
Y6929D01*
X19096D01*
Y6888D01*
X19055D01*
X19309Y7142D02*
Y7183D01*
X19350D01*
Y7142D01*
X19309D01*
X19055D02*
Y7183D01*
X19096D01*
Y7142D01*
X19055D01*
X19309Y7396D02*
Y7437D01*
X19350D01*
Y7396D01*
X19309D01*
X19055D02*
Y7437D01*
X19096D01*
Y7396D01*
X19055D01*
X19309Y7650D02*
Y7691D01*
X19350D01*
Y7650D01*
X19309D01*
X19055D02*
Y7691D01*
X19096D01*
Y7650D01*
X19055D01*
X19309Y7904D02*
Y7945D01*
X19350D01*
Y7904D01*
X19309D01*
X19055D02*
Y7945D01*
X19096D01*
Y7904D01*
X19055D01*
X19309Y8158D02*
Y8199D01*
X19350D01*
Y8158D01*
X19309D01*
X19055D02*
Y8199D01*
X19096D01*
Y8158D01*
X19055D01*
X19309Y8412D02*
Y8453D01*
X19350D01*
Y8412D01*
X19309D01*
X19055D02*
Y8453D01*
X19096D01*
Y8412D01*
X19055D01*
X19309Y8666D02*
Y8707D01*
X19350D01*
Y8666D01*
X19309D01*
X19055D02*
Y8707D01*
X19096D01*
Y8666D01*
X19055D01*
X19309Y8920D02*
Y8961D01*
X19350D01*
Y8920D01*
X19309D01*
X19055D02*
Y8961D01*
X19096D01*
Y8920D01*
X19055D01*
X19309Y9174D02*
Y9215D01*
X19350D01*
Y9174D01*
X19309D01*
X19055D02*
Y9215D01*
X19096D01*
Y9174D01*
X19055D01*
X19309Y9428D02*
Y9469D01*
X19350D01*
Y9428D01*
X19309D01*
X19055D02*
Y9469D01*
X19096D01*
Y9428D01*
X19055D01*
X21849Y5110D02*
Y5151D01*
X21890D01*
Y5110D01*
X21849D01*
X21595D02*
Y5151D01*
X21636D01*
Y5110D01*
X21595D01*
X21849Y5364D02*
Y5405D01*
X21890D01*
Y5364D01*
X21849D01*
X21595D02*
Y5405D01*
X21636D01*
Y5364D01*
X21595D01*
X21849Y5618D02*
Y5659D01*
X21890D01*
Y5618D01*
X21849D01*
X21595D02*
Y5659D01*
X21636D01*
Y5618D01*
X21595D01*
X21849Y5872D02*
Y5913D01*
X21890D01*
Y5872D01*
X21849D01*
X21595D02*
Y5913D01*
X21636D01*
Y5872D01*
X21595D01*
X21849Y6126D02*
Y6167D01*
X21890D01*
Y6126D01*
X21849D01*
X21595D02*
Y6167D01*
X21636D01*
Y6126D01*
X21595D01*
X21849Y6380D02*
Y6421D01*
X21890D01*
Y6380D01*
X21849D01*
X21595D02*
Y6421D01*
X21636D01*
Y6380D01*
X21595D01*
X21849Y6634D02*
Y6675D01*
X21890D01*
Y6634D01*
X21849D01*
X21595D02*
Y6675D01*
X21636D01*
Y6634D01*
X21595D01*
X21849Y6888D02*
Y6929D01*
X21890D01*
Y6888D01*
X21849D01*
X21595D02*
Y6929D01*
X21636D01*
Y6888D01*
X21595D01*
X21849Y7142D02*
Y7183D01*
X21890D01*
Y7142D01*
X21849D01*
X21595D02*
Y7183D01*
X21636D01*
Y7142D01*
X21595D01*
X21849Y7396D02*
Y7437D01*
X21890D01*
Y7396D01*
X21849D01*
X21595D02*
Y7437D01*
X21636D01*
Y7396D01*
X21595D01*
X21849Y7650D02*
Y7691D01*
X21890D01*
Y7650D01*
X21849D01*
X21595D02*
Y7691D01*
X21636D01*
Y7650D01*
X21595D01*
X21849Y7904D02*
Y7945D01*
X21890D01*
Y7904D01*
X21849D01*
X21595D02*
Y7945D01*
X21636D01*
Y7904D01*
X21595D01*
X21849Y8158D02*
Y8199D01*
X21890D01*
Y8158D01*
X21849D01*
X21595D02*
Y8199D01*
X21636D01*
Y8158D01*
X21595D01*
X21849Y8412D02*
Y8453D01*
X21890D01*
Y8412D01*
X21849D01*
X21595D02*
Y8453D01*
X21636D01*
Y8412D01*
X21595D01*
X21849Y8666D02*
Y8707D01*
X21890D01*
Y8666D01*
X21849D01*
X21595D02*
Y8707D01*
X21636D01*
Y8666D01*
X21595D01*
X21849Y8920D02*
Y8961D01*
X21890D01*
Y8920D01*
X21849D01*
X21595D02*
Y8961D01*
X21636D01*
Y8920D01*
X21595D01*
X21849Y9174D02*
Y9215D01*
X21890D01*
Y9174D01*
X21849D01*
X21595D02*
Y9215D01*
X21636D01*
Y9174D01*
X21595D01*
X21849Y9428D02*
Y9469D01*
X21890D01*
Y9428D01*
X21849D01*
X21595D02*
Y9469D01*
X21636D01*
Y9428D01*
X21595D01*
X20482Y7692D02*
X20461Y7733D01*
X20502D01*
X20482Y7692D01*
X20295Y7650D02*
X20274Y7691D01*
X20315D01*
X20295Y7650D01*
X20131Y7663D02*
X20110Y7704D01*
X20151D01*
X20131Y7663D01*
D39*
X20493Y9233D02*
G03*
X20493Y9233I-20J0D01*
G01*
X19985Y9746D02*
G03*
X19985Y9746I-20J0D01*
G01*
Y8725D02*
G03*
X19985Y8725I-20J0D01*
G01*
X21006D02*
G03*
X21006Y8725I-20J0D01*
G01*
Y9746D02*
G03*
X21006Y9746I-20J0D01*
G01*
X20467Y5347D02*
G03*
X20467Y5347I-20J0D01*
G01*
X19959Y5860D02*
G03*
X19959Y5860I-20J0D01*
G01*
Y4839D02*
G03*
X19959Y4839I-20J0D01*
G01*
X20980D02*
G03*
X20980Y4839I-20J0D01*
G01*
Y5860D02*
G03*
X20980Y5860I-20J0D01*
G01*
M02*
