G04 Layer_Color=16711935*
%FSLAX42Y42*%
%MOMM*%
G71*
G01*
G75*
%ADD34C,1.70*%
%ADD35R,1.70X1.70*%
%ADD36C,2.70*%
D34*
X19329Y5131D02*
D03*
X19075D02*
D03*
X19329Y5385D02*
D03*
X19075D02*
D03*
X19329Y5639D02*
D03*
X19075D02*
D03*
X19329Y5893D02*
D03*
X19075D02*
D03*
X19329Y6147D02*
D03*
X19075D02*
D03*
X19329Y6401D02*
D03*
X19075D02*
D03*
X19329Y6655D02*
D03*
X19075D02*
D03*
X19329Y6909D02*
D03*
X19075D02*
D03*
X19329Y7163D02*
D03*
X19075D02*
D03*
X19329Y7417D02*
D03*
X19075D02*
D03*
X19329Y7671D02*
D03*
X19075D02*
D03*
X19329Y7925D02*
D03*
X19075D02*
D03*
X19329Y8179D02*
D03*
X19075D02*
D03*
X19329Y8433D02*
D03*
X19075D02*
D03*
X19329Y8687D02*
D03*
X19075D02*
D03*
X19329Y8941D02*
D03*
X19075D02*
D03*
X19329Y9195D02*
D03*
X19075D02*
D03*
X19329Y9449D02*
D03*
X21869Y5131D02*
D03*
X21615D02*
D03*
X21869Y5385D02*
D03*
X21615D02*
D03*
X21869Y5639D02*
D03*
X21615D02*
D03*
X21869Y5893D02*
D03*
X21615D02*
D03*
X21869Y6147D02*
D03*
X21615D02*
D03*
X21869Y6401D02*
D03*
X21615D02*
D03*
X21869Y6655D02*
D03*
X21615D02*
D03*
X21869Y6909D02*
D03*
X21615D02*
D03*
X21869Y7163D02*
D03*
X21615D02*
D03*
X21869Y7417D02*
D03*
X21615D02*
D03*
X21869Y7671D02*
D03*
X21615D02*
D03*
X21869Y7925D02*
D03*
X21615D02*
D03*
X21869Y8179D02*
D03*
X21615D02*
D03*
X21869Y8433D02*
D03*
X21615D02*
D03*
X21869Y8687D02*
D03*
X21615D02*
D03*
X21869Y8941D02*
D03*
X21615D02*
D03*
X21869Y9195D02*
D03*
X21615D02*
D03*
X21869Y9449D02*
D03*
D35*
X19075D02*
D03*
X21615D02*
D03*
D36*
X20472Y9233D02*
D03*
X19964Y9746D02*
D03*
Y8725D02*
D03*
X20985D02*
D03*
Y9746D02*
D03*
X20447Y5347D02*
D03*
X19939Y5860D02*
D03*
Y4839D02*
D03*
X20960D02*
D03*
Y5860D02*
D03*
M02*
