G04 Layer_Color=128*
%FSLAX42Y42*%
%MOMM*%
G71*
G01*
G75*
%ADD40C,0.05*%
D40*
X1200Y1040D02*
X1400D01*
X1300Y940D02*
Y1140D01*
X3400Y1040D02*
X3600D01*
X3500Y940D02*
Y1140D01*
X3400Y3240D02*
X3600D01*
X3500Y3140D02*
Y3340D01*
X1200Y3240D02*
X1400D01*
X1300Y3140D02*
Y3340D01*
X3114Y1092D02*
X3204D01*
X3159Y1047D02*
Y1137D01*
X1275Y2934D02*
X1365D01*
X1320Y2889D02*
Y2979D01*
X1275Y2680D02*
X1365D01*
X1320Y2635D02*
Y2725D01*
X1275Y2426D02*
X1365D01*
X1320Y2381D02*
Y2471D01*
X1275Y2172D02*
X1365D01*
X1320Y2127D02*
Y2217D01*
X1275Y1870D02*
X1365D01*
X1320Y1825D02*
Y1915D01*
X1275Y1616D02*
X1365D01*
X1320Y1571D02*
Y1661D01*
X1275Y1362D02*
X1365D01*
X1320Y1317D02*
Y1407D01*
X3415Y2314D02*
X3505D01*
X3460Y2269D02*
Y2359D01*
X3415Y2060D02*
X3505D01*
X3460Y2015D02*
Y2105D01*
X1725Y1050D02*
X1815D01*
X1770Y1005D02*
Y1095D01*
X1979Y1050D02*
X2069D01*
X2024Y1005D02*
Y1095D01*
X3020Y1537D02*
X3070D01*
X3045Y1512D02*
Y1562D01*
X2815Y2120D02*
X2865D01*
X2840Y2095D02*
Y2145D01*
X2042Y2000D02*
X2092D01*
X2067Y1975D02*
Y2025D01*
X1802Y2287D02*
X1852D01*
X1827Y2262D02*
Y2312D01*
X2280Y2419D02*
X2330D01*
X2305Y2394D02*
Y2444D01*
X1867Y2620D02*
X1917D01*
X1892Y2595D02*
Y2645D01*
X1525Y2625D02*
X1575D01*
X1550Y2600D02*
Y2650D01*
X2495Y1280D02*
X2545D01*
X2520Y1255D02*
Y1305D01*
X1575Y3020D02*
X1625D01*
X1600Y2995D02*
Y3045D01*
X1655Y3110D02*
X1705D01*
X1680Y3085D02*
Y3135D01*
X2085Y1300D02*
X2135D01*
X2110Y1275D02*
Y1325D01*
X3123Y2300D02*
X3173D01*
X3148Y2275D02*
Y2325D01*
M02*
