G04 Layer_Color=255*
%FSLAX42Y42*%
%MOMM*%
G71*
G01*
G75*
%ADD10R,1.30X1.40*%
%ADD11R,2.18X1.62*%
%ADD12R,1.15X1.35*%
%ADD13R,0.55X0.80*%
%ADD14R,1.98X0.56*%
%ADD15R,1.40X1.30*%
%ADD20C,2.00*%
%ADD21R,1.50X1.50*%
%ADD22C,1.50*%
%ADD23R,1.50X1.50*%
D10*
X1890Y3060D02*
D03*
X2050D02*
D03*
X1990Y2420D02*
D03*
X2150D02*
D03*
X3000Y2470D02*
D03*
X2840D02*
D03*
X3000Y2290D02*
D03*
X2840D02*
D03*
X3372Y1537D02*
D03*
X3212D02*
D03*
D11*
X1827Y1605D02*
D03*
Y2027D02*
D03*
D12*
X1948Y1330D02*
D03*
X1773D02*
D03*
X2450Y1820D02*
D03*
X2275D02*
D03*
X3205Y1717D02*
D03*
X3380D02*
D03*
X3383Y1357D02*
D03*
X3208D02*
D03*
X2275Y2000D02*
D03*
X2450D02*
D03*
D13*
X2082Y2620D02*
D03*
X1892D02*
D03*
Y2860D02*
D03*
X1987D02*
D03*
X2082D02*
D03*
D14*
X2697Y3074D02*
D03*
Y2947D02*
D03*
Y2820D02*
D03*
Y2693D02*
D03*
X3190D02*
D03*
Y2820D02*
D03*
Y2947D02*
D03*
Y3074D02*
D03*
X2820Y1213D02*
D03*
Y1340D02*
D03*
Y1467D02*
D03*
Y1594D02*
D03*
X2327D02*
D03*
Y1467D02*
D03*
Y1340D02*
D03*
Y1213D02*
D03*
D15*
X1711Y2788D02*
D03*
Y2628D02*
D03*
D20*
X1300Y1040D02*
D03*
X3500D02*
D03*
Y3240D02*
D03*
X1300D02*
D03*
D21*
X3159Y1092D02*
D03*
X1320Y2934D02*
D03*
Y1870D02*
D03*
X3460Y2060D02*
D03*
D22*
X1320Y2680D02*
D03*
Y2426D02*
D03*
Y2172D02*
D03*
Y1616D02*
D03*
Y1362D02*
D03*
X3460Y2314D02*
D03*
X1770Y1050D02*
D03*
D23*
X2024D02*
D03*
M02*
