M48
;Layer_Color=9474304
;FILE_FORMAT=2:5
INCH,LZ
;TYPE=PLATED
T1F00S00C0.01968
T2F00S00C0.03543
;TYPE=NON_PLATED
T3F00S00C0.07874
%
T01
X0119878Y0060512
X0111811Y008348
X0123953Y0090551
X0090732Y0095248
X0071913Y0090047
X0074504Y0103165
X0061035Y0103342
X0062992Y0118898
X0081358Y007874
X0083071Y0051181
X0099213Y0050394
X0066142Y0122441
T02
X0124386Y0043
X0136221Y0081102
Y0091102
X0051968Y0095512
Y0105512
Y0115512
Y0085512
Y0073622
Y0063622
Y0053622
X0069685Y0041339
X0079685
T03
X0137795Y0040945
X0051181
Y0127559
X0137795
M30
