G04 Layer_Color=65535*
%FSLAX42Y42*%
%MOMM*%
G71*
G01*
G75*
%ADD25C,0.25*%
%ADD26C,0.20*%
%ADD27C,0.15*%
%ADD28C,0.25*%
%ADD29C,0.10*%
G36*
X2097Y2780D02*
X2127D01*
Y2750D01*
X2102Y2760D01*
X2092Y2770D01*
Y2785D01*
X2097Y2780D01*
D02*
G37*
D25*
X2967Y1092D02*
G03*
X2967Y1092I-12J0D01*
G01*
D26*
X2097Y2785D02*
G03*
X2129Y2751I35J0D01*
G01*
X2913Y3124D02*
G03*
X2974Y3124I30J0D01*
G01*
X2604Y1163D02*
G03*
X2543Y1163I-30J0D01*
G01*
X3019Y952D02*
Y1232D01*
X3019Y1232D02*
X3299D01*
Y952D02*
Y1232D01*
X3019Y952D02*
X3299D01*
X1744Y1817D02*
X1894D01*
X1607Y1476D02*
Y1491D01*
X1777D01*
X1607D02*
Y2136D01*
Y1476D02*
X1777D01*
Y1491D01*
X1877D02*
X2037D01*
X1877Y1476D02*
Y1491D01*
X1607Y2136D02*
X1680D01*
X1877Y1476D02*
X2037D01*
X1975Y2136D02*
X2037D01*
Y1476D02*
Y2136D01*
X1193Y2045D02*
X1447D01*
X1193D02*
Y3061D01*
X1447Y2045D02*
Y3061D01*
X1193D02*
X1447D01*
X1193Y1235D02*
Y1997D01*
Y1235D02*
X1447D01*
Y1997D01*
X1193D02*
X1447D01*
X3333Y1933D02*
Y2441D01*
Y1933D02*
X3587D01*
Y2441D01*
X3333D02*
X3587D01*
X1643Y923D02*
X2151D01*
Y1177D01*
X1643D02*
X2151D01*
X1643Y923D02*
Y1177D01*
X1848Y2689D02*
X2130D01*
X1848Y2788D02*
X2130D01*
X1848Y2689D02*
Y2788D01*
X2130Y2689D02*
Y2788D01*
X2813Y2632D02*
X3088D01*
X2813Y3135D02*
X3088D01*
X2430Y1655D02*
X2704D01*
X2430Y1152D02*
X2704D01*
D27*
X1800Y3110D02*
Y3150D01*
X2140D01*
Y3110D02*
Y3150D01*
Y2970D02*
Y3010D01*
X1800Y2970D02*
X2140D01*
X1800D02*
Y3010D01*
X1970Y2970D02*
Y3150D01*
X1900Y2470D02*
Y2510D01*
X2240D01*
Y2470D02*
Y2510D01*
Y2330D02*
Y2370D01*
X1900Y2330D02*
X2240D01*
X1900D02*
Y2370D01*
X2070Y2330D02*
Y2510D01*
X3090Y2380D02*
Y2420D01*
X2750Y2380D02*
X3090D01*
X2750D02*
Y2420D01*
Y2520D02*
Y2560D01*
X3090D01*
Y2520D02*
Y2560D01*
X2920Y2380D02*
Y2560D01*
X3090Y2200D02*
Y2240D01*
X2750Y2200D02*
X3090D01*
X2750D02*
Y2240D01*
Y2340D02*
Y2380D01*
X3090D01*
Y2340D02*
Y2380D01*
X2920Y2200D02*
Y2380D01*
X3462Y1447D02*
Y1487D01*
X3123Y1447D02*
X3462D01*
X3123D02*
Y1487D01*
Y1587D02*
Y1627D01*
X3462D01*
Y1587D02*
Y1627D01*
X3292Y1447D02*
Y1627D01*
X2030Y1240D02*
Y1260D01*
X1690Y1240D02*
X2030D01*
X1690D02*
Y1260D01*
X2030Y1400D02*
Y1420D01*
X1690D02*
X2030D01*
X1690Y1400D02*
Y1420D01*
X1860Y1240D02*
Y1420D01*
X2533Y1730D02*
Y1750D01*
X2192Y1730D02*
X2533D01*
X2192D02*
Y1750D01*
X2533Y1890D02*
Y1910D01*
X2192D02*
X2533D01*
X2192Y1890D02*
Y1910D01*
X2362Y1730D02*
Y1910D01*
X3123Y1787D02*
Y1807D01*
X3462D01*
Y1787D02*
Y1807D01*
X3123Y1627D02*
Y1647D01*
Y1627D02*
X3462D01*
Y1647D01*
X3292Y1627D02*
Y1807D01*
X3465Y1267D02*
Y1287D01*
X3125Y1267D02*
X3465D01*
X3125D02*
Y1287D01*
X3465Y1427D02*
Y1447D01*
X3125D02*
X3465D01*
X3125Y1427D02*
Y1447D01*
X3295Y1267D02*
Y1447D01*
X2192Y2070D02*
Y2090D01*
X2533D01*
Y2070D02*
Y2090D01*
X2192Y1910D02*
Y1930D01*
Y1910D02*
X2533D01*
Y1930D01*
X2362Y1910D02*
Y2090D01*
X1761Y2878D02*
X1801D01*
Y2538D02*
Y2878D01*
X1761Y2538D02*
X1801D01*
X1621D02*
X1661D01*
X1621D02*
Y2878D01*
X1661D01*
X1621Y2708D02*
X1801D01*
X2520Y1087D02*
Y1037D01*
X2530Y1027D01*
X2550D01*
X2560Y1037D01*
Y1087D01*
X2580Y1077D02*
X2590Y1087D01*
X2610D01*
X2620Y1077D01*
Y1067D01*
X2610Y1057D01*
X2600D01*
X2610D01*
X2620Y1047D01*
Y1037D01*
X2610Y1027D01*
X2590D01*
X2580Y1037D01*
X2940Y3240D02*
Y3190D01*
X2950Y3180D01*
X2970D01*
X2980Y3190D01*
Y3240D01*
X3040Y3180D02*
X3000D01*
X3040Y3220D01*
Y3230D01*
X3030Y3240D01*
X3010D01*
X3000Y3230D01*
X1950Y2650D02*
Y2600D01*
X1960Y2590D01*
X1980D01*
X1990Y2600D01*
Y2650D01*
X2010Y2590D02*
X2030D01*
X2020D01*
Y2650D01*
X2010Y2640D01*
X2080Y1970D02*
Y2030D01*
X2110D01*
X2120Y2020D01*
Y2000D01*
X2110Y1990D01*
X2080D01*
X2100D02*
X2120Y1970D01*
X2180Y2030D02*
X2140D01*
Y2000D01*
X2160Y2010D01*
X2170D01*
X2180Y2000D01*
Y1980D01*
X2170Y1970D01*
X2150D01*
X2140Y1980D01*
X3495Y1337D02*
Y1397D01*
X3525D01*
X3535Y1387D01*
Y1367D01*
X3525Y1357D01*
X3495D01*
X3515D02*
X3535Y1337D01*
X3585D02*
Y1397D01*
X3555Y1367D01*
X3595D01*
X3483Y1687D02*
Y1747D01*
X3512D01*
X3522Y1737D01*
Y1717D01*
X3512Y1707D01*
X3483D01*
X3502D02*
X3522Y1687D01*
X3542Y1737D02*
X3552Y1747D01*
X3572D01*
X3582Y1737D01*
Y1727D01*
X3572Y1717D01*
X3562D01*
X3572D01*
X3582Y1707D01*
Y1697D01*
X3572Y1687D01*
X3552D01*
X3542Y1697D01*
X2080Y1790D02*
Y1850D01*
X2110D01*
X2120Y1840D01*
Y1820D01*
X2110Y1810D01*
X2080D01*
X2100D02*
X2120Y1790D01*
X2180D02*
X2140D01*
X2180Y1830D01*
Y1840D01*
X2170Y1850D01*
X2150D01*
X2140Y1840D01*
X1591Y1287D02*
Y1347D01*
X1621D01*
X1631Y1337D01*
Y1317D01*
X1621Y1307D01*
X1591D01*
X1611D02*
X1631Y1287D01*
X1651D02*
X1671D01*
X1661D01*
Y1347D01*
X1651Y1337D01*
X2323Y1011D02*
X2303D01*
X2313D01*
Y961D01*
X2303Y951D01*
X2293D01*
X2283Y961D01*
X2373Y951D02*
Y1011D01*
X2343Y981D01*
X2383D01*
X3440Y2550D02*
X3420D01*
X3430D01*
Y2500D01*
X3420Y2490D01*
X3410D01*
X3400Y2500D01*
X3460Y2540D02*
X3470Y2550D01*
X3490D01*
X3500Y2540D01*
Y2530D01*
X3490Y2520D01*
X3480D01*
X3490D01*
X3500Y2510D01*
Y2500D01*
X3490Y2490D01*
X3470D01*
X3460Y2500D01*
X1448Y1200D02*
X1428D01*
X1438D01*
Y1150D01*
X1428Y1140D01*
X1418D01*
X1408Y1150D01*
X1508Y1140D02*
X1468D01*
X1508Y1180D01*
Y1190D01*
X1498Y1200D01*
X1478D01*
X1468Y1190D01*
X1460Y3160D02*
X1440D01*
X1450D01*
Y3110D01*
X1440Y3100D01*
X1430D01*
X1420Y3110D01*
X1480Y3100D02*
X1500D01*
X1490D01*
Y3160D01*
X1480Y3150D01*
X3532Y1577D02*
X3522Y1587D01*
X3502D01*
X3492Y1577D01*
Y1537D01*
X3502Y1527D01*
X3522D01*
X3532Y1537D01*
X3592Y1587D02*
X3572Y1577D01*
X3552Y1557D01*
Y1537D01*
X3562Y1527D01*
X3582D01*
X3592Y1537D01*
Y1547D01*
X3582Y1557D01*
X3552D01*
X2670Y2310D02*
X2660Y2320D01*
X2640D01*
X2630Y2310D01*
Y2270D01*
X2640Y2260D01*
X2660D01*
X2670Y2270D01*
X2690Y2310D02*
X2700Y2320D01*
X2720D01*
X2730Y2310D01*
Y2300D01*
X2720Y2290D01*
X2710D01*
X2720D01*
X2730Y2280D01*
Y2270D01*
X2720Y2260D01*
X2700D01*
X2690Y2270D01*
X2670Y2490D02*
X2660Y2500D01*
X2640D01*
X2630Y2490D01*
Y2450D01*
X2640Y2440D01*
X2660D01*
X2670Y2450D01*
X2730Y2440D02*
X2690D01*
X2730Y2480D01*
Y2490D01*
X2720Y2500D01*
X2700D01*
X2690Y2490D01*
X2320Y2450D02*
X2310Y2460D01*
X2290D01*
X2280Y2450D01*
Y2410D01*
X2290Y2400D01*
X2310D01*
X2320Y2410D01*
X2370Y2400D02*
Y2460D01*
X2340Y2430D01*
X2380D01*
X2220Y3070D02*
X2210Y3080D01*
X2190D01*
X2180Y3070D01*
Y3030D01*
X2190Y3020D01*
X2210D01*
X2220Y3030D01*
X2240Y3020D02*
X2260D01*
X2250D01*
Y3080D01*
X2240Y3070D01*
X1612Y2273D02*
Y2213D01*
X1642D01*
X1652Y2223D01*
Y2263D01*
X1642Y2273D01*
X1612D01*
X1672Y2213D02*
X1691D01*
X1681D01*
Y2273D01*
X1672Y2263D01*
X2850Y1027D02*
X2890D01*
X2870D01*
Y967D01*
X2910D02*
Y1027D01*
X2940D01*
X2950Y1017D01*
Y997D01*
X2940Y987D01*
X2910D01*
X2970Y967D02*
X2990D01*
X2980D01*
Y1027D01*
X2970Y1017D01*
X1701Y2478D02*
X1691Y2488D01*
X1671D01*
X1661Y2478D01*
Y2438D01*
X1671Y2428D01*
X1691D01*
X1701Y2438D01*
X1761Y2488D02*
X1721D01*
Y2458D01*
X1741Y2468D01*
X1751D01*
X1761Y2458D01*
Y2438D01*
X1751Y2428D01*
X1731D01*
X1721Y2438D01*
D28*
X1818Y1724D02*
Y1911D01*
X1803Y1881D02*
X1823Y1861D01*
X1773Y1881D02*
X1803D01*
X1773D02*
X1813Y1841D01*
X1823D01*
X1793Y1751D02*
X1823Y1781D01*
X1773Y1751D02*
X1793D01*
X1773D02*
X1803Y1781D01*
X1823D01*
X1853Y1751D01*
X1863D01*
X1823Y1841D02*
X1853Y1871D01*
X1753Y1881D02*
X1883D01*
X1753D02*
X1883Y1751D01*
X1753D02*
X1883D01*
X1753D02*
X1883Y1881D01*
D29*
X1488Y2388D02*
X1480Y2379D01*
Y2363D01*
X1488Y2354D01*
X1521D01*
X1530Y2363D01*
Y2379D01*
X1521Y2388D01*
X1505D01*
Y2371D01*
X1530Y2404D02*
X1480D01*
X1530Y2438D01*
X1480D01*
Y2454D02*
X1530D01*
Y2479D01*
X1521Y2487D01*
X1488D01*
X1480Y2479D01*
Y2454D01*
X3250Y2286D02*
X3241Y2278D01*
Y2261D01*
X3250Y2253D01*
X3283D01*
X3291Y2261D01*
Y2278D01*
X3283Y2286D01*
X3266D01*
Y2269D01*
X3291Y2303D02*
X3241D01*
X3291Y2336D01*
X3241D01*
Y2353D02*
X3291D01*
Y2378D01*
X3283Y2386D01*
X3250D01*
X3241Y2378D01*
Y2353D01*
X3250Y2032D02*
Y2016D01*
X3258Y2007D01*
X3292D01*
X3300Y2016D01*
Y2032D01*
X3292Y2041D01*
X3258D01*
X3250Y2032D01*
Y2057D02*
X3292D01*
X3300Y2066D01*
Y2082D01*
X3292Y2091D01*
X3250D01*
Y2107D02*
Y2141D01*
Y2124D01*
X3300D01*
X1513Y2862D02*
Y2895D01*
X1496Y2878D02*
X1530D01*
X1488Y2945D02*
Y2912D01*
X1513D01*
X1505Y2928D01*
Y2937D01*
X1513Y2945D01*
X1530D01*
X1538Y2937D01*
Y2920D01*
X1530Y2912D01*
X1488Y2962D02*
X1521D01*
X1538Y2978D01*
X1521Y2995D01*
X1488D01*
X1510Y2602D02*
Y2636D01*
X1493Y2619D02*
X1527D01*
X1493Y2652D02*
X1485Y2661D01*
Y2677D01*
X1493Y2686D01*
X1502D01*
X1510Y2677D01*
Y2669D01*
Y2677D01*
X1518Y2686D01*
X1527D01*
X1535Y2677D01*
Y2661D01*
X1527Y2652D01*
X1485Y2702D02*
X1518D01*
X1535Y2719D01*
X1518Y2735D01*
X1485D01*
X1501Y2091D02*
Y2124D01*
X1476Y2174D02*
Y2141D01*
X1501D01*
X1492Y2158D01*
Y2166D01*
X1501Y2174D01*
X1517D01*
X1526Y2166D01*
Y2149D01*
X1517Y2141D01*
X1476Y2191D02*
X1509D01*
X1526Y2208D01*
X1509Y2224D01*
X1476D01*
X1511Y1792D02*
Y1826D01*
X1486Y1876D02*
Y1842D01*
X1511D01*
X1503Y1859D01*
Y1867D01*
X1511Y1876D01*
X1528D01*
X1536Y1867D01*
Y1851D01*
X1528Y1842D01*
X1486Y1892D02*
X1519D01*
X1536Y1909D01*
X1519Y1926D01*
X1486D01*
X1507Y1283D02*
Y1316D01*
X1482Y1366D02*
Y1333D01*
X1507D01*
X1499Y1349D01*
Y1358D01*
X1507Y1366D01*
X1524D01*
X1532Y1358D01*
Y1341D01*
X1524Y1333D01*
X1482Y1383D02*
X1515D01*
X1532Y1399D01*
X1515Y1416D01*
X1482D01*
X1484Y1566D02*
Y1532D01*
X1534D01*
Y1566D01*
X1509Y1532D02*
Y1549D01*
X1534Y1582D02*
X1484D01*
X1534Y1616D01*
X1484D01*
X1534Y1632D02*
X1501D01*
X1484Y1649D01*
X1501Y1666D01*
X1534D01*
X1509D01*
Y1632D01*
X1568Y989D02*
X1560Y981D01*
Y964D01*
X1568Y956D01*
X1577D01*
X1585Y964D01*
Y981D01*
X1593Y989D01*
X1602D01*
X1610Y981D01*
Y964D01*
X1602Y956D01*
X1568Y1039D02*
X1560Y1031D01*
Y1014D01*
X1568Y1006D01*
X1602D01*
X1610Y1014D01*
Y1031D01*
X1602Y1039D01*
X1610Y1056D02*
X1560D01*
Y1081D01*
X1568Y1089D01*
X1585D01*
X1593Y1081D01*
Y1056D01*
X1585Y1106D02*
Y1139D01*
X1568Y1122D02*
X1602D01*
X2199Y994D02*
X2191Y985D01*
Y969D01*
X2199Y960D01*
X2208D01*
X2216Y969D01*
Y985D01*
X2224Y994D01*
X2233D01*
X2241Y985D01*
Y969D01*
X2233Y960D01*
X2199Y1044D02*
X2191Y1035D01*
Y1019D01*
X2199Y1010D01*
X2233D01*
X2241Y1019D01*
Y1035D01*
X2233Y1044D01*
X2241Y1060D02*
X2191D01*
Y1085D01*
X2199Y1094D01*
X2216D01*
X2224Y1085D01*
Y1060D01*
X2216Y1110D02*
Y1144D01*
M02*
