G04 Layer_Physical_Order=1*
G04 Layer_Color=255*
%FSLAX42Y42*%
%MOMM*%
G71*
G01*
G75*
%ADD10R,1.30X1.40*%
%ADD11R,2.18X1.62*%
%ADD12R,1.15X1.35*%
%ADD13R,0.55X0.80*%
%ADD14R,1.98X0.56*%
%ADD15R,1.40X1.30*%
%ADD16C,0.50*%
%ADD17C,1.00*%
%ADD18C,0.80*%
%ADD19R,0.90X1.00*%
%ADD20C,2.00*%
%ADD21R,1.50X1.50*%
%ADD22C,1.50*%
%ADD23R,1.50X1.50*%
%ADD24C,1.00*%
D10*
X1890Y3060D02*
D03*
X2050D02*
D03*
X1990Y2420D02*
D03*
X2150D02*
D03*
X3000Y2470D02*
D03*
X2840D02*
D03*
X3000Y2290D02*
D03*
X2840D02*
D03*
X3372Y1537D02*
D03*
X3212D02*
D03*
D11*
X1827Y1605D02*
D03*
Y2027D02*
D03*
D12*
X1948Y1330D02*
D03*
X1773D02*
D03*
X2450Y1820D02*
D03*
X2275D02*
D03*
X3205Y1717D02*
D03*
X3380D02*
D03*
X3383Y1357D02*
D03*
X3208D02*
D03*
X2275Y2000D02*
D03*
X2450D02*
D03*
D13*
X2082Y2620D02*
D03*
X1892D02*
D03*
Y2860D02*
D03*
X1987D02*
D03*
X2082D02*
D03*
D14*
X2697Y3074D02*
D03*
Y2947D02*
D03*
Y2820D02*
D03*
Y2693D02*
D03*
X3190D02*
D03*
Y2820D02*
D03*
Y2947D02*
D03*
Y3074D02*
D03*
X2820Y1213D02*
D03*
Y1340D02*
D03*
Y1467D02*
D03*
Y1594D02*
D03*
X2327D02*
D03*
Y1467D02*
D03*
Y1340D02*
D03*
Y1213D02*
D03*
D15*
X1711Y2788D02*
D03*
Y2628D02*
D03*
D16*
X3383Y1357D02*
Y1727D01*
X3380Y1725D02*
Y1845D01*
Y1717D02*
Y1725D01*
Y1845D02*
X3460Y1925D01*
Y2060D01*
X3000Y1922D02*
X3205Y1717D01*
X3000Y1922D02*
Y2290D01*
X3159Y1246D02*
X3239Y1326D01*
X3159Y1280D02*
Y1309D01*
Y1246D02*
Y1280D01*
X3122Y1346D02*
X3159Y1309D01*
Y1280D02*
X3176Y1263D01*
X3093Y1346D02*
X3159Y1280D01*
X3087Y1340D02*
X3093Y1346D01*
X2820Y1340D02*
X3087D01*
X3093Y1346D02*
X3122D01*
X3164Y1400D02*
X3208Y1357D01*
X3147Y1400D02*
X3164D01*
X3093Y1346D02*
X3147Y1400D01*
X3159Y1092D02*
Y1246D01*
X3122Y1346D02*
X3196D01*
X3208Y1357D01*
X3159Y1309D02*
X3196Y1346D01*
X1320Y2680D02*
X1713Y2287D01*
X1827D01*
X1997Y2427D02*
Y2697D01*
X1990Y2420D02*
X1997Y2427D01*
Y2697D02*
X2082Y2782D01*
X1482Y2138D02*
X1535Y2085D01*
X1453Y2167D02*
X1482Y2138D01*
X1543D01*
X1453Y2172D02*
X1622D01*
X1320D02*
X1453D01*
Y2167D02*
Y2172D01*
X1535Y2085D02*
X1622Y2172D01*
X1925D01*
X1535Y1577D02*
Y2085D01*
X1320Y1362D02*
X1535Y1577D01*
X2620Y1340D02*
X2820D01*
X2493Y1467D02*
X2620Y1340D01*
X2327Y1467D02*
X2493D01*
X2632D02*
X2820D01*
X2483Y1616D02*
X2632Y1467D01*
X2483Y1616D02*
Y1787D01*
X2626Y1704D02*
Y2086D01*
X2541Y2172D02*
X2626Y2086D01*
X1983Y2172D02*
X2541D01*
X2450Y1820D02*
X2483Y1787D01*
X2626Y1704D02*
X2736Y1594D01*
X2820D01*
X1990Y2237D02*
X2055Y2172D01*
X1925D02*
X1983D01*
X1990Y2237D02*
Y2420D01*
Y2179D02*
Y2237D01*
X1925Y2172D02*
X1990Y2237D01*
X1983Y2172D02*
X1990Y2179D01*
X3000Y2720D02*
X3100Y2820D01*
X3000Y2530D02*
Y2720D01*
Y2530D02*
X3030Y2500D01*
X2110Y1300D02*
X2197Y1213D01*
X2327D01*
X2050Y3060D02*
X2165Y2945D01*
Y2703D02*
Y2945D01*
X3000Y2290D02*
Y2470D01*
X1892Y2860D02*
Y3058D01*
X2082Y2620D02*
X2165Y2703D01*
X2082Y2782D02*
Y2860D01*
X1952Y2765D02*
X1987Y2801D01*
Y2860D01*
X3383Y1727D02*
X3390D01*
X3380Y1725D02*
X3383Y1727D01*
X3208Y1357D02*
X3239Y1326D01*
X1650Y2790D02*
X1652Y2788D01*
X1675Y2765D01*
X1952D01*
X3000Y2290D02*
X3001Y2289D01*
X3012Y2300D01*
X3148D01*
D17*
X3045Y1537D02*
X3212D01*
X2697Y2693D02*
X2784D01*
X2840Y2637D01*
Y2470D02*
Y2637D01*
Y2120D02*
Y2290D01*
Y2470D01*
X2067Y2000D02*
X2275D01*
X1855D02*
X2067D01*
X2304Y2420D02*
X2305Y2419D01*
X2150Y2420D02*
X2304D01*
X1550Y2625D02*
X1553Y2627D01*
Y2627D01*
X1553Y2628D01*
X1711D01*
X1718Y2620D02*
X1892D01*
X1711Y2628D02*
X1718Y2620D01*
X2460Y1340D02*
X2520Y1280D01*
X2327Y1340D02*
X2460D01*
X1650Y3078D02*
X1812Y3240D01*
X1650Y3080D02*
X1680Y3110D01*
X1556Y2974D02*
X1650Y2880D01*
X1546Y2974D02*
X1556D01*
X1506Y2934D02*
X1546Y2974D01*
X2513Y2947D02*
X2697D01*
X2220Y3240D02*
X2513Y2947D01*
X1812Y3240D02*
X2220D01*
X1652Y2788D02*
X1711D01*
X1650Y2790D02*
Y2880D01*
X1506Y2934D02*
X1650Y2790D01*
X1382Y2934D02*
X1528Y2788D01*
X1652D01*
X1650Y2880D02*
Y3078D01*
X1320Y2934D02*
X1382D01*
X1506D01*
X1546Y2974D02*
X1650Y3078D01*
D18*
X2450Y1820D02*
Y2000D01*
X1770Y1327D02*
X1773Y1330D01*
X1770Y1050D02*
Y1327D01*
X1790Y1659D02*
X1828Y1698D01*
X1948D02*
X2070Y1820D01*
X1909Y1659D02*
X1948Y1698D01*
X1889Y1659D02*
X1909D01*
X1828Y1698D02*
X1951Y1820D01*
X2070D01*
X2275D01*
X1948Y1502D02*
Y1600D01*
Y1330D02*
Y1502D01*
X1790Y1659D02*
X1948Y1502D01*
Y1600D02*
Y1698D01*
X1790Y1659D02*
X1889D01*
X1948Y1600D01*
X1828Y1698D02*
X1948D01*
D19*
X1945Y1740D02*
D03*
D20*
X1300Y1040D02*
D03*
X3500D02*
D03*
Y3240D02*
D03*
X1300D02*
D03*
D21*
X3159Y1092D02*
D03*
X1320Y2934D02*
D03*
Y1870D02*
D03*
X3460Y2060D02*
D03*
D22*
X1320Y2680D02*
D03*
Y2426D02*
D03*
Y2172D02*
D03*
Y1616D02*
D03*
Y1362D02*
D03*
X3460Y2314D02*
D03*
X1770Y1050D02*
D03*
D23*
X2024D02*
D03*
D24*
X3045Y1537D02*
D03*
X2840Y2120D02*
D03*
X2067Y2000D02*
D03*
X1827Y2287D02*
D03*
X2305Y2419D02*
D03*
X1892Y2620D02*
D03*
X1550Y2625D02*
D03*
X2520Y1280D02*
D03*
X1600Y3020D02*
D03*
X1680Y3110D02*
D03*
X2110Y1300D02*
D03*
X3148Y2300D02*
D03*
M02*
